<svg width="21" height="18" viewBox="0 0 21 18" fill="none" xmlns="http://www.w3.org/2000/svg">
<path d="M19.2884 0H14.9324C14.2631 0 13.7207 0.536658 13.7207 1.19956V4.31351H10.5759C9.90643 4.31351 9.36405 4.84997 9.36405 5.51292V8.62706H6.21919C5.5497 8.62706 5.00752 9.1643 5.00752 9.82652V13.0907H1.71171C1.39012 13.0907 1.08195 13.2169 0.854819 13.4416C0.627497 13.6664 0.5 13.973 0.5 14.2901L0.500393 16.7999C0.500393 17.4634 1.04297 18 1.71206 18H19.2884C19.9579 18 20.5 17.4634 20.5 16.7999V1.19951C20.5001 0.536658 19.9579 0 19.2884 0Z" fill="#888B97"/>
</svg>
